<svg width="420" height="439" xmlns="http://www.w3.org/2000/svg" xmlns:xlink="http://www.w3.org/1999/xlink" overflow="hidden"><g transform="translate(-397 -190)"><text fill="#A2D5C6" font-family="Calibri,Calibri_MSFontService,sans-serif" font-weight="700" font-size="37" transform="translate(426.998 596)">CONSELHEIRO VIRTUAL</text><path d="M775 296C775 352.884 728.884 399 672 399 615.112 399 569 352.884 569 296 569 239.112 615.112 193 672 193 728.884 193 774.995 239.112 774.995 295.995" stroke="#A2C2C6" stroke-width="4" stroke-linejoin="round" stroke-miterlimit="10" fill="none" fill-rule="evenodd"/><path d="M569 296 775 296" stroke="#A2C2C6" stroke-width="4" stroke-linejoin="round" stroke-miterlimit="10" fill="none" fill-rule="evenodd"/><path d="M0 0 0.000104987 206" stroke="#A2C2C6" stroke-width="4" stroke-linejoin="round" stroke-miterlimit="10" fill="none" fill-rule="evenodd" transform="matrix(1 0 0 -1 672 399)"/><path d="M671.676 398.994C638.597 375.125 619 336.818 619 296.029 619 255.2 638.626 216.863 671.758 193" stroke="#A2C2C6" stroke-width="4" stroke-linejoin="round" stroke-miterlimit="10" fill="none" fill-rule="evenodd"/><path d="M591 232 594.778 233.699 598.657 235.299 602.536 236.835 606.381 238.305 610.36 239.71 614.305 240.984 618.284 242.192 622.33 243.336 626.376 244.381 630.455 245.328 634.534 246.178 638.647 246.962 642.76 247.648 646.872 248.236 651.019 248.759 655.198 249.183 659.344 249.51 663.557 249.739 667.703 249.902 671.883 250 676.063 249.935 680.242 249.869 684.422 249.673 688.601 249.347 692.781 248.987 696.927 248.497 701.04 247.942 705.186 247.321 709.298 246.603 713.378 245.753 717.457 244.904 721.536 243.891 725.582 242.813 729.561 241.637 733.573 240.396 737.519 239.024 741.431 237.652 745.31 236.116 749.188 234.548 753 232.915" stroke="#A2C2C6" stroke-width="4" stroke-linejoin="round" stroke-miterlimit="10" fill="none" fill-rule="evenodd"/><path d="M672.207 193C705.356 216.857 725 255.197 725 296.029 725 336.82 705.386 375.131 672.289 399" stroke="#A2C2C6" stroke-width="4" stroke-linejoin="round" stroke-miterlimit="10" fill="none" fill-rule="evenodd"/><path d="M596.449 194 591.075 194.466 588.372 194.765 585.735 195.098 583.065 195.397 580.395 195.763 577.759 196.229 575.122 196.694 573.82 196.994 572.485 197.293 571.184 197.559 569.882 197.892 567.279 198.59 564.709 199.289 562.139 200.121 559.569 200.952 557.066 201.884 554.529 202.882 552.059 203.913 549.556 204.977 547.12 206.108 544.683 207.339 542.314 208.536 541.146 209.202 539.978 209.834 538.776 210.532 537.641 211.231 536.507 211.929 535.372 212.628 534.237 213.36 533.136 214.092 532.001 214.857 530.933 215.655 529.831 216.453 528.763 217.252 527.729 218.083 526.661 218.915 525.66 219.78 524.625 220.678 523.624 221.576 522.589 222.441 521.621 223.339 520.653 224.27 518.717 226.133 516.848 228.096 515.013 230.025 513.211 232.054 511.442 234.083 509.739 236.146 508.071 238.275 506.469 240.404 505.668 241.501 504.9 242.599 504.166 243.697 503.398 244.828 502.697 245.959 501.963 247.09 501.262 248.254 500.595 249.385 499.927 250.549 499.293 251.713 498.659 252.911 498.058 254.075 496.857 256.504 495.688 258.899 494.654 261.36 493.586 263.855 492.585 266.35 491.617 268.878 490.682 271.373 489.748 273.934 488.913 276.495 488.079 279.057 487.712 280.354 487.345 281.651 487.044 282.949 486.71 284.246 486.377 285.543 486.11 286.84 485.843 288.171 485.609 289.468 485.409 290.799 485.242 292.13 485.075 293.493 484.975 294.824 484.875 296.154 484.808 297.485 484.675 300.213 484.608 301.543 484.474 302.874 484.307 304.171 484.107 305.535 483.974 306.167 483.874 306.832 483.707 307.431 483.54 308.063 483.139 309.327 482.739 310.591 482.205 311.855 481.671 313.053 481.103 314.283 480.469 315.481 479.868 316.712 479.234 317.876 476.531 322.633 475.229 324.995 473.961 327.323 471.458 332.047 468.921 336.704 467.62 339.032 466.285 341.327 464.916 343.623 463.515 345.885 462.78 347.049 462.013 348.18 461.245 349.277 460.477 350.408 459.643 351.506 458.842 352.637 457.14 354.833 456.305 355.897 455.471 356.995 454.703 358.126 454.336 358.724 454.003 359.323 453.669 359.889 453.335 360.454 453.068 361.053 452.834 361.685 452.601 362.284 452.401 362.916 452.234 363.548 452.134 364.18 452.033 364.878 452 365.51 452 366.209 452 366.874 452.1 367.54 452.167 368.238 452.3 368.87 452.467 369.569 452.601 370.267 452.834 370.899 453.068 371.565 453.302 372.163 453.602 372.829 453.902 373.427 454.236 373.993 454.603 374.558 454.97 375.124 455.371 375.656 455.838 376.188 456.239 376.654 456.739 377.153 457.173 377.652 457.707 378.084 458.174 378.55 458.708 378.949 459.276 379.348 459.843 379.747 460.444 380.113 461.011 380.479 461.612 380.845 462.213 381.178 462.814 381.477 463.481 381.81 464.115 382.109 465.417 382.641 466.785 383.107 468.154 383.573 469.555 383.939 470.957 384.305 473.727 384.97 475.129 385.336 476.464 385.702 477.098 385.901 477.766 386.167 478.367 386.367 478.967 386.6 479.601 386.899 480.169 387.165 480.736 387.498 481.304 387.831 481.838 388.197 482.305 388.596 482.806 388.995 483.306 389.427 483.707 389.926 484.107 390.459 484.508 391.024 484.841 391.59 485.175 392.188 485.409 392.854 485.609 393.486 485.776 394.151 485.809 394.783 485.843 395.482 485.843 396.812 485.809 398.143 485.743 399.506 485.542 402.168 485.275 404.829 485.008 407.556 484.708 410.284 484.107 415.673 483.874 418.401 483.607 421.062 483.44 423.789 483.373 425.12 483.34 426.451 483.34 427.781 483.34 429.112 483.373 430.475 483.406 431.806 483.506 433.137 483.607 434.434 483.74 435.764 483.94 437.062 484.141 438.426 484.408 439.723 484.675 441.02 485.042 442.318 485.409 443.615 485.843 444.846 486.11 445.511 486.343 446.11 486.644 446.708 486.911 447.34 487.244 447.939 487.578 448.505 487.945 449.07 488.312 449.636 488.68 450.201 489.113 450.733 489.514 451.266 489.981 451.765 490.448 452.23 490.916 452.729 491.383 453.195 491.917 453.661 492.451 454.06 492.985 454.492 493.519 454.858 494.02 455.291 494.587 455.656 495.188 455.956 495.755 456.322 496.356 456.654 497.524 457.22 498.759 457.785 500.027 458.284 501.329 458.717 502.564 459.083 503.932 459.449 505.267 459.781 506.602 460.047 507.937 460.313 509.339 460.513 510.707 460.713 512.042 460.879 513.444 461.045 514.812 461.145 517.516 461.345 520.186 461.544 522.823 461.711 525.426 461.877 526.728 461.91 528.063 461.91 529.364 461.91 530.699 461.877 532.034 461.844 533.369 461.777 534.771 461.644 536.173 461.478 537.608 461.278 539.076 461.045 539.444 460.979 539.811 460.945 540.144 460.945 540.445 460.979 540.745 461.079 541.012 461.178 541.279 461.345 541.479 461.544 541.68 461.81 541.88 462.043 542.047 462.376 542.18 462.709 542.447 463.374 542.681 464.106 543.115 465.569 543.515 467 543.816 468.397 544.149 469.827 544.417 471.257 544.617 472.621 544.817 474.018 544.917 475.382 545.051 476.713 545.184 478.11 545.218 479.44 545.284 480.771 545.284 482.068 545.351 483.399 545.284 486.06 545.251 488.655 545.117 493.844 545.084 496.438 545.084 499.033 545.117 500.33 545.184 501.628 545.251 502.925 545.384 504.222 545.484 505.52 545.618 506.85 545.818 508.147 546.085 509.478 546.319 510.809 546.586 512.139 546.953 513.503 547.153 514.135 547.42 514.8 547.654 515.432 547.954 516.031 548.221 516.63 548.588 517.195 548.956 517.694 549.389 518.193 549.857 518.692 550.357 519.091 550.925 519.491 551.425 519.856 552.059 520.222 552.627 520.555 553.261 520.854 553.895 521.154 555.197 521.686 556.432 522.218 557.733 522.651 559.035 523.05 560.337 523.449 561.638 523.815 562.94 524.181 564.208 524.513 565.51 524.813 568.113 525.378 570.75 525.844 576.023 526.842 578.66 527.308 581.296 527.773 583.933 528.173 586.603 528.572 589.273 528.938 591.91 529.303 594.613 529.636 597.283 529.936 599.987 530.202 602.657 530.435 605.36 530.601 608.03 530.767 610.733 530.867 613.403 530.967 616.073 531 618.777 530.967 621.447 530.933 624.15 530.8 626.82 530.667 629.524 530.468 632.194 530.235 634.897 529.936 637.567 529.57 640.271 529.17 642.941 528.738 645.577 528.206 646.912 527.94 648.214 527.64 649.582 527.308 650.884 526.975 652.186 526.642 653.487 526.276 654.722 525.844 656.057 525.445 657.292 525.012 658.56 524.547 659.795 524.081 660.997 523.582 662.232 523.05 663.433 522.484 664.635 521.919 665.803 521.287 666.938 520.622 668.072 519.923 669.207 519.158 670.309 518.36 670.843 517.96 671.377 517.495 671.911 517.029 672.445 516.53 672.979 516.031 673.446 515.565 673.946 515.033 674.347 514.468 674.747 513.902 675.081 513.337 675.215 513.037 675.315 512.771 675.448 512.439 675.515 512.139 675.615 511.84 675.649 511.54 675.682 511.208 675.682 510.908 675.682 510.276 675.615 509.644 675.482 508.979 675.315 508.347 675.148 507.648 674.948 507.016 674.514 505.619 674.314 504.987 674.113 504.289 673.98 503.657 673.846 502.958 673.746 502.293 673.713 501.661 673.412 498.967 673.179 496.339 672.912 493.678 672.712 490.983 672.545 488.322 672.511 486.991 672.478 485.594 672.445 484.264 672.445 482.933 672.478 481.603 672.511 480.239 672.645 477.578 672.812 474.883 673.045 472.255 673.379 469.594 673.713 466.9 674.113 464.272 674.547 461.611 675.048 458.95 675.582 456.322 676.149 453.694 676.75 451.066 677.084 449.769 677.451 448.471 677.818 447.207 678.219 445.91 678.619 444.646 679.053 443.382 679.553 442.151 680.054 440.887 680.521 439.656 681.055 438.459 681.623 437.228 682.19 436.031 682.758 434.8 683.392 433.636 684.627 431.241 685.928 428.879 687.297 426.584 690 421.927" stroke="#A2C2C6" stroke-width="6" stroke-linejoin="round" stroke-miterlimit="10" fill="none" fill-rule="evenodd"/><path d="M547.5 234C547.5 236.485 545.485 238.5 543 238.5 540.515 238.5 538.5 236.485 538.5 234 538.5 231.515 540.515 229.5 543 229.5 545.485 229.5 547.5 231.515 547.5 234L543 234Z" fill="#A2D5C6" fill-rule="evenodd"/><path d="M547.5 234C547.5 236.485 545.485 238.5 543 238.5 540.515 238.5 538.5 236.485 538.5 234 538.5 231.515 540.515 229.5 543 229.5 545.485 229.5 547.5 231.515 547.5 234" stroke="#A2C2C6" stroke-width="0" stroke-linejoin="round" stroke-miterlimit="10" fill="none" fill-rule="evenodd"/><path d="M537.497 262.833C537.499 262.889 537.5 262.944 537.5 263 537.5 265.485 535.261 267.5 532.5 267.5 529.738 267.5 527.5 265.485 527.5 263 527.5 260.515 529.738 258.5 532.5 258.5 535.189 258.5 537.397 260.415 537.497 262.833L532.5 263Z" fill="#A2D5C6" fill-rule="evenodd"/><path d="M537.497 262.833C537.499 262.889 537.5 262.944 537.5 263 537.5 265.485 535.261 267.5 532.5 267.5 529.738 267.5 527.5 265.485 527.5 263 527.5 260.515 529.738 258.5 532.5 258.5 535.189 258.5 537.397 260.415 537.497 262.833" stroke="#A2C2C6" stroke-width="0" stroke-linejoin="round" stroke-miterlimit="10" fill="none" fill-rule="evenodd"/><path d="M533.5 294C533.5 296.485 531.261 298.5 528.5 298.5 525.738 298.5 523.5 296.485 523.5 294 523.5 291.515 525.738 289.5 528.5 289.5 531.261 289.5 533.5 291.515 533.5 294L528.5 294Z" fill="#A2D5C6" fill-rule="evenodd"/><path d="M533.5 294C533.5 296.485 531.261 298.5 528.5 298.5 525.738 298.5 523.5 296.485 523.5 294 523.5 291.515 525.738 289.5 528.5 289.5 531.261 289.5 533.5 291.515 533.5 294" stroke="#A2C2C6" stroke-width="0" stroke-linejoin="round" stroke-miterlimit="10" fill="none" fill-rule="evenodd"/><path d="M535.5 324C535.5 326.485 533.485 328.5 531 328.5 528.515 328.5 526.5 326.485 526.5 324 526.5 321.515 528.515 319.5 531 319.5 533.485 319.5 535.5 321.515 535.5 324L531 324Z" fill="#A2D5C6" fill-rule="evenodd"/><path d="M535.5 324C535.5 326.485 533.485 328.5 531 328.5 528.515 328.5 526.5 326.485 526.5 324 526.5 321.515 528.515 319.5 531 319.5 533.485 319.5 535.5 321.515 535.5 324" stroke="#A2C2C6" stroke-width="0" stroke-linejoin="round" stroke-miterlimit="10" fill="none" fill-rule="evenodd"/><path d="M545.5 354C545.5 356.485 543.485 358.5 541 358.5 538.515 358.5 536.5 356.485 536.5 354 536.5 351.515 538.515 349.5 541 349.5 543.485 349.5 545.5 351.515 545.5 354L541 354Z" fill="#A2D5C6" fill-rule="evenodd"/><path d="M545.5 354C545.5 356.485 543.485 358.5 541 358.5 538.515 358.5 536.5 356.485 536.5 354 536.5 351.515 538.515 349.5 541 349.5 543.485 349.5 545.5 351.515 545.5 354" stroke="#A2C2C6" stroke-width="0" stroke-linejoin="round" stroke-miterlimit="10" fill="none" fill-rule="evenodd"/><path d="M560.5 381C560.5 383.485 558.485 385.5 556 385.5 553.515 385.5 551.5 383.485 551.5 381 551.5 378.515 553.515 376.5 556 376.5 558.485 376.5 560.5 378.515 560.5 381L556 381Z" fill="#A2D5C6" fill-rule="evenodd"/><path d="M560.5 381C560.5 383.485 558.485 385.5 556 385.5 553.515 385.5 551.5 383.485 551.5 381 551.5 378.515 553.515 376.5 556 376.5 558.485 376.5 560.5 378.515 560.5 381" stroke="#A2C2C6" stroke-width="0" stroke-linejoin="round" stroke-miterlimit="10" fill="none" fill-rule="evenodd"/><path d="M581.5 404C581.5 406.485 579.485 408.5 577 408.5 574.515 408.5 572.5 406.485 572.5 404 572.5 401.515 574.515 399.5 577 399.5 579.485 399.5 581.5 401.515 581.5 404L577 404Z" fill="#A2D5C6" fill-rule="evenodd"/><path d="M581.5 404C581.5 406.485 579.485 408.5 577 408.5 574.515 408.5 572.5 406.485 572.5 404 572.5 401.515 574.515 399.5 577 399.5 579.485 399.5 581.5 401.515 581.5 404" stroke="#A2C2C6" stroke-width="0" stroke-linejoin="round" stroke-miterlimit="10" fill="none" fill-rule="evenodd"/><path d="M607.497 420.833C607.499 420.889 607.5 420.944 607.5 421 607.5 423.485 605.485 425.5 603 425.5 600.515 425.5 598.5 423.485 598.5 421 598.5 418.515 600.515 416.5 603 416.5 605.42 416.5 607.407 418.415 607.497 420.833L603 421Z" fill="#A2D5C6" fill-rule="evenodd"/><path d="M607.497 420.833C607.499 420.889 607.5 420.944 607.5 421 607.5 423.485 605.485 425.5 603 425.5 600.515 425.5 598.5 423.485 598.5 421 598.5 418.515 600.515 416.5 603 416.5 605.42 416.5 607.407 418.415 607.497 420.833" stroke="#A2C2C6" stroke-width="0" stroke-linejoin="round" stroke-miterlimit="10" fill="none" fill-rule="evenodd"/><path d="M635.5 433C635.5 435.485 633.485 437.5 631 437.5 628.515 437.5 626.5 435.485 626.5 433 626.5 430.515 628.515 428.5 631 428.5 633.485 428.5 635.5 430.515 635.5 433L631 433Z" fill="#A2D5C6" fill-rule="evenodd"/><path d="M635.5 433C635.5 435.485 633.485 437.5 631 437.5 628.515 437.5 626.5 435.485 626.5 433 626.5 430.515 628.515 428.5 631 428.5 633.485 428.5 635.5 430.515 635.5 433" stroke="#A2C2C6" stroke-width="0" stroke-linejoin="round" stroke-miterlimit="10" fill="none" fill-rule="evenodd"/><path d="M666.5 438C666.5 440.485 664.485 442.5 662 442.5 659.515 442.5 657.5 440.485 657.5 438 657.5 435.515 659.515 433.5 662 433.5 664.485 433.5 666.5 435.515 666.5 438L662 438Z" fill="#A2D5C6" fill-rule="evenodd"/><path d="M666.5 438C666.5 440.485 664.485 442.5 662 442.5 659.515 442.5 657.5 440.485 657.5 438 657.5 435.515 659.515 433.5 662 433.5 664.485 433.5 666.5 435.515 666.5 438" stroke="#A2C2C6" stroke-width="0" stroke-linejoin="round" stroke-miterlimit="10" fill="none" fill-rule="evenodd"/><path d="M753 359.085 749.188 357.452 745.31 355.851 741.431 354.348 737.519 352.944 733.573 351.604 729.561 350.363 725.582 349.154 721.536 348.076 717.457 347.096 713.378 346.214 709.298 345.397 705.186 344.679 701.04 344.025 696.927 343.47 692.781 342.98 688.601 342.621 684.422 342.327 680.242 342.131 676.063 342.033 671.883 342 667.703 342.065 663.557 342.229 659.344 342.49 655.198 342.784 651.019 343.241 646.872 343.764 642.76 344.352 638.647 345.038 634.534 345.822 630.455 346.672 626.376 347.619 622.33 348.664 618.284 349.808 614.305 350.984 610.36 352.258 606.381 353.662 602.536 355.132 598.657 356.701 594.778 358.269 591 360" stroke="#A2C2C6" stroke-width="4" stroke-linejoin="round" stroke-miterlimit="10" fill="none" fill-rule="evenodd"/></g></svg>