<?xml version="1.0" encoding="utf-8"?>
<svg viewBox="0 0 290 230" xmlns="http://www.w3.org/2000/svg">
  <g transform="matrix(1, 0, 0, 1, -159.06320427452317, -245.2730444263375)">
    <g>
      <path d="M 303.161 407.933 C 300.279 407.933 298.321 409.353 298.321 411.633 C 298.321 416.355 305.495 414.705 305.495 417.667 C 305.495 418.689 304.564 419.281 303.01 419.281 C 301.586 419.281 299.881 418.597 298.515 417.344 L 297.547 419.281 C 298.912 420.528 300.886 421.383 302.973 421.383 C 305.893 421.383 307.98 419.921 307.98 417.549 C 308.001 412.768 300.827 414.327 300.827 411.424 C 300.827 410.531 301.683 410.036 302.989 410.036 C 303.994 410.036 305.436 410.402 306.877 411.273 L 307.807 409.3 C 306.576 408.482 304.887 407.933 303.161 407.933 Z M 320.079 410.036 L 320.079 408.03 L 310.598 408.03 L 310.598 421.308 L 320.31 421.308 L 320.31 419.297 L 312.835 419.297 L 312.835 415.634 L 319.321 415.634 L 319.321 413.624 L 312.835 413.624 L 312.835 410.036 L 320.079 410.036 Z" fill="#231f20"/>
      <path d="M 328.866 407.971 C 324.94 407.971 321.885 410.875 321.885 414.65 C 321.885 418.463 324.902 421.405 328.791 421.405 C 330.667 421.405 332.587 420.549 333.931 419.221 L 332.603 417.743 C 331.597 418.711 330.231 419.318 328.903 419.318 C 326.247 419.318 324.16 417.248 324.16 414.628 C 324.16 412.01 326.247 409.961 328.903 409.961 C 330.253 409.961 331.635 410.607 332.603 411.65 L 333.915 410.021 C 332.625 408.751 330.743 407.971 328.866 407.971 Z M 344.633 421.308 L 347.177 421.308 L 344.197 416.866 C 345.962 416.183 346.946 414.688 346.946 412.564 C 346.946 409.676 344.993 408.03 341.595 408.03 L 336.212 408.03 L 336.212 421.308 L 338.448 421.308 L 338.448 417.307 L 341.595 417.307 C 341.804 417.307 342.014 417.307 342.202 417.285 L 344.633 421.308 Z M 338.448 415.295 L 338.448 410.036 L 341.595 410.036 C 343.644 410.036 344.821 410.875 344.821 412.618 C 344.821 414.419 343.644 415.295 341.595 415.295 L 338.448 415.295 Z M 359.411 410.036 L 359.411 408.03 L 349.931 408.03 L 349.931 421.308 L 359.642 421.308 L 359.642 419.297 L 352.167 419.297 L 352.167 415.634 L 358.653 415.634 L 358.653 413.624 L 352.167 413.624 L 352.167 410.036 L 359.411 410.036 Z M 371.441 410.036 L 371.441 408.03 L 360.798 408.03 L 360.798 410.036 L 364.988 410.036 L 364.988 421.308 L 367.23 421.308 L 367.23 410.036 L 371.441 410.036 Z" fill="#231f20"/>
      <path d="M 381.263 418.313 L 382.532 421.308 L 384.926 421.308 L 379.118 408.03 L 376.827 408.03 L 370.966 421.308 L 373.294 421.308 L 374.569 418.313 L 381.263 418.313 Z M 380.408 416.318 L 375.402 416.318 L 377.908 410.418 L 380.408 416.318 Z M 395.116 421.308 L 397.66 421.308 L 394.681 416.866 C 396.445 416.183 397.429 414.688 397.429 412.564 C 397.429 409.676 395.476 408.03 392.078 408.03 L 386.695 408.03 L 386.695 421.308 L 388.932 421.308 L 388.932 417.307 L 392.078 417.307 C 392.287 417.307 392.498 417.307 392.685 417.285 L 395.116 421.308 Z M 388.932 415.295 L 388.932 410.036 L 392.078 410.036 C 394.127 410.036 395.304 410.875 395.304 412.618 C 395.304 414.419 394.127 415.295 392.078 415.295 L 388.932 415.295 Z M 402.65 421.308 L 402.65 408.03 L 400.414 408.03 L 400.414 421.308 L 402.65 421.308 Z M 414.713 418.313 L 415.981 421.308 L 418.375 421.308 L 412.567 408.03 L 410.276 408.03 L 404.415 421.308 L 406.743 421.308 L 408.018 418.313 L 414.713 418.313 Z M 413.857 416.318 L 408.851 416.318 L 411.357 410.418 L 413.857 416.318 Z" fill="#231f20"/>
      <path d="M 185.688 428.063 L 185.688 441.341 L 191.071 441.341 C 195.093 441.341 197.997 438.534 197.997 434.7 C 197.997 430.849 195.115 428.063 191.13 428.063 L 185.688 428.063 Z M 187.924 430.069 L 191.093 430.069 C 193.711 430.069 195.739 432.005 195.739 434.721 C 195.739 437.415 193.765 439.33 191.189 439.33 L 187.924 439.33 L 187.924 430.069 Z" fill="#231f20"/>
      <path d="M 208.792 438.346 L 210.061 441.341 L 212.454 441.341 L 206.646 428.063 L 204.355 428.063 L 198.494 441.341 L 200.822 441.341 L 202.097 438.346 L 208.792 438.346 Z M 207.936 436.35 L 202.93 436.35 L 205.436 430.451 L 207.936 436.35 Z" fill="#231f20"/>
      <path d="M 229.986 431.075 L 229.986 428.042 L 219.112 428.042 L 219.112 441.341 L 230.173 441.341 L 230.173 438.308 L 223.059 438.308 L 223.059 436.2 L 229.34 436.2 L 229.34 433.167 L 223.059 433.167 L 223.059 431.075 L 229.986 431.075 Z M 232.066 428.042 L 232.066 441.341 L 237.757 441.341 C 242.139 441.341 245.043 438.684 245.043 434.683 C 245.043 430.677 242.198 428.042 237.891 428.042 L 232.066 428.042 Z M 236.014 431.155 L 237.815 431.155 C 239.714 431.155 241.02 432.575 241.02 434.721 C 241.02 436.845 239.805 438.249 238.004 438.249 L 236.014 438.249 L 236.014 431.155 Z M 258.814 428.042 L 254.867 428.042 L 254.867 435.727 C 254.867 437.281 253.943 438.211 252.631 438.211 C 251.302 438.211 250.259 437.265 250.259 435.727 L 250.259 428.042 L 246.312 428.042 L 246.312 435.727 C 246.312 439.254 248.796 441.513 252.614 441.513 C 256.406 441.513 258.814 439.254 258.814 435.727 L 258.814 428.042 Z M 267.236 427.929 C 263.116 427.929 260.084 430.795 260.084 434.661 C 260.084 438.587 263.063 441.513 267.102 441.513 C 269.113 441.513 271.296 440.507 272.737 438.948 L 270.462 436.523 C 269.548 437.453 268.317 438.06 267.295 438.06 C 265.488 438.06 264.122 436.581 264.122 434.624 C 264.122 432.672 265.488 431.21 267.295 431.21 C 268.392 431.21 269.629 431.914 270.462 432.973 L 272.737 430.279 C 271.393 428.838 269.248 427.929 267.236 427.929" fill="#231f20"/>
      <path d="M 282.664 439.217 L 283.444 441.341 L 287.655 441.341 L 282.175 428.042 L 278.115 428.042 L 272.441 441.341 L 276.501 441.341 L 277.298 439.217 L 282.664 439.217 Z M 281.621 436.334 L 278.4 436.334 L 280.029 431.989 L 281.621 436.334 Z" fill="#231f20"/>
      <path d="M 294.905 438.06 C 293.097 438.06 291.732 436.581 291.732 434.624 C 291.732 432.672 293.097 431.21 294.905 431.21 C 296.002 431.21 297.238 431.914 298.072 432.973 L 300.347 430.279 C 299.002 428.838 296.857 427.929 294.845 427.929 C 290.726 427.929 287.694 430.795 287.694 434.661 C 287.694 438.249 290.162 440.98 293.651 441.438 L 292.931 442.895 C 293.157 442.857 293.442 442.82 293.614 442.82 C 294.141 442.82 294.447 443.089 294.447 443.486 C 294.447 443.863 294.163 444.132 293.705 444.132 C 293.404 444.132 293.082 443.976 292.856 443.75 L 292.173 445.305 C 292.721 445.686 293.458 445.933 294.028 445.933 C 295.566 445.933 296.571 445.116 296.571 443.863 C 296.571 443.142 296.077 442.556 295.303 442.309 L 295.754 441.416 C 297.442 441.152 299.153 440.238 300.347 438.948 L 298.072 436.523 C 297.158 437.453 295.926 438.06 294.905 438.06" fill="#231f20"/>
      <path d="M 306.968 425.896 C 307.463 425.896 307.952 426.714 309.13 426.714 C 310.555 426.714 311.238 425.67 311.238 423.471 L 308.921 423.471 C 308.921 423.982 308.77 424.229 308.41 424.229 C 307.936 424.229 307.404 423.412 306.264 423.412 C 304.845 423.412 304.14 424.455 304.14 426.655 L 306.474 426.655 C 306.474 426.143 306.624 425.896 306.968 425.896 Z M 310.287 439.217 L 311.066 441.341 L 315.277 441.341 L 309.797 428.042 L 305.737 428.042 L 300.064 441.341 L 304.123 441.341 L 304.92 439.217 L 310.287 439.217 Z M 309.243 436.334 L 306.022 436.334 L 307.651 431.989 L 309.243 436.334 Z" fill="#231f20"/>
      <path d="M 322.563 427.929 C 318.39 427.929 315.315 430.774 315.315 434.683 C 315.315 438.609 318.39 441.513 322.563 441.513 C 326.736 441.513 329.807 438.587 329.807 434.683 C 329.807 430.795 326.736 427.929 322.563 427.929 Z M 322.617 431.231 C 324.365 431.231 325.769 432.689 325.769 434.7 C 325.769 436.71 324.365 438.211 322.617 438.211 C 320.875 438.211 319.353 436.71 319.353 434.7 C 319.353 432.689 320.853 431.231 322.617 431.231" fill="#231f20"/>
      <path d="M 345.707 436.312 L 345.707 434.813 L 341.039 434.813 L 341.039 436.312 L 345.707 436.312 Z M 357.865 427.966 C 354.983 427.966 353.025 429.386 353.025 431.666 C 353.025 436.387 360.2 434.737 360.2 437.7 C 360.2 438.722 359.269 439.314 357.715 439.314 C 356.29 439.314 354.585 438.63 353.219 437.377 L 352.251 439.314 C 353.617 440.561 355.591 441.416 357.677 441.416 C 360.597 441.416 362.684 439.954 362.684 437.582 C 362.705 432.801 355.532 434.36 355.532 431.457 C 355.532 430.564 356.387 430.069 357.693 430.069 C 358.699 430.069 360.141 430.435 361.582 431.306 L 362.512 429.333 C 361.28 428.515 359.591 427.966 357.865 427.966 Z M 374.784 430.069 L 374.784 428.063 L 365.303 428.063 L 365.303 441.341 L 375.015 441.341 L 375.015 439.33 L 367.54 439.33 L 367.54 435.667 L 374.025 435.667 L 374.025 433.656 L 367.54 433.656 L 367.54 430.069 L 374.784 430.069 Z M 377.747 428.063 L 377.747 441.341 L 383.13 441.341 C 387.152 441.341 390.056 438.534 390.056 434.7 C 390.056 430.849 387.174 428.063 383.189 428.063 L 377.747 428.063 Z M 379.984 430.069 L 383.152 430.069 C 385.77 430.069 387.798 432.005 387.798 434.721 C 387.798 437.415 385.824 439.33 383.249 439.33 L 379.984 439.33 L 379.984 430.069 Z M 403.737 428.063 L 401.494 428.063 L 401.494 435.839 C 401.494 438.098 400.15 439.426 397.988 439.426 C 395.805 439.426 394.417 438.077 394.417 435.839 L 394.417 428.063 L 392.18 428.063 L 392.18 435.839 C 392.18 439.314 394.379 441.438 397.966 441.438 C 401.554 441.438 403.737 439.314 403.737 435.839 L 403.737 428.063 Z M 412.82 428.004 C 408.894 428.004 405.839 430.908 405.839 434.683 C 405.839 438.496 408.856 441.438 412.744 441.438 C 414.621 441.438 416.541 440.582 417.885 439.254 L 416.557 437.776 C 415.551 438.743 414.185 439.351 412.857 439.351 C 410.201 439.351 408.114 437.281 408.114 434.661 C 408.114 432.043 410.201 429.994 412.857 429.994 C 414.207 429.994 415.589 430.64 416.557 431.683 L 417.869 430.053 C 416.578 428.784 414.696 428.004 412.82 428.004" fill="#231f20"/>
      <path d="M 241.791 307.33 C 251.963 302.325 262.083 298.523 272.068 297.766 C 272.146 296.021 272.222 294.286 272.3 292.568 C 262.302 293.619 252.203 297.007 242.043 301.681 C 241.958 303.56 241.875 305.441 241.791 307.33" fill="#074ea2"/>
      <path d="M 272.178 301.696 C 262.84 302.232 253.376 305.648 243.855 310.28 C 243.772 312.15 243.688 314.027 243.605 315.908 C 253.134 311.044 262.612 307.343 271.939 307.025 C 272.02 305.236 272.1 303.458 272.178 301.696" fill="#f8b517"/>
      <path d="M 238.91 327.961 C 250.746 321.378 262.54 315.699 274.048 316.488 C 274.131 314.641 274.214 312.808 274.294 310.984 C 262.775 310.467 250.997 315.789 239.168 322.211 C 239.08 324.126 238.995 326.042 238.91 327.961" fill="#f8b517"/>
      <path d="M 275.1 330.367 C 275.015 332.262 274.93 334.167 274.845 336.08 C 249.691 332.395 222.912 365.119 197.756 361.454 L 198.84 355.925 C 223.749 358.819 250.234 326.485 275.1 330.367" fill="#ef4023"/>
      <path d="M 279.855 341.452 C 279.769 343.377 279.682 345.303 279.597 347.228 C 265.394 341.763 250.543 350.809 235.742 358.724 C 221.01 366.845 206.329 373.839 192.116 370.293 L 193.193 364.798 C 221.357 373.232 251.759 331.53 279.855 341.452" fill="#ef4023"/>
      <path d="M 277.146 350.85 C 277.059 352.786 276.974 354.725 276.886 356.669 C 263.254 353.218 249.078 361.883 234.977 368.937 C 220.912 376.293 206.918 382.045 193.251 380.439 L 194.335 374.917 C 207.703 376.944 221.443 370.651 235.235 363.171 C 249.352 355.758 263.528 347.103 277.146 350.85" fill="#ef4023"/>
      <path d="M 226.572 395.65 C 226.492 397.454 226.411 399.25 226.331 401.039 C 218.239 403.553 210.19 405.189 202.132 406.897 L 203.117 401.881 C 210.907 400.427 218.72 398.473 226.572 395.65" fill="#057931"/>
      <path d="M 273.505 366.072 C 260.463 364.912 247.006 373.048 233.643 379.081 C 219.969 385.677 206.392 390.08 193.014 390.006 L 194.102 384.452 C 207.167 385.247 220.494 380.199 233.898 373.346 C 247.282 366.847 260.746 358.55 273.772 360.115 L 273.505 366.072 Z" fill="#057931"/>
      <path d="M 255.337 379.792 C 246.942 382.77 238.492 387.009 230.085 390.271 C 219.438 394.604 208.861 397.369 198.34 398.885 L 199.368 393.631 C 209.606 392.545 219.937 389.323 230.334 384.675 C 238.759 381.05 247.223 376.491 255.62 373.455 L 255.337 379.792 Z" fill="#057931"/>
      <path d="M 268.613 284.223 C 268.539 285.86 268.466 287.514 268.392 289.187 C 260.777 290.449 253.108 292.883 245.408 296.065 L 245.652 290.584 C 253.338 287.728 260.993 285.598 268.613 284.223" fill="#074ea2"/>
      <path d="M 255.903 278.645 C 259.543 277.704 263.182 276.842 266.823 275.964 C 266.809 277.562 266.795 279.177 266.782 280.807 C 263.083 281.608 259.382 282.519 255.682 283.577 L 255.903 278.645 Z" fill="#074ea2"/>
      <path d="M 272.34 325.876 C 257.589 325.138 242.324 335.994 227.187 343.92 L 227.447 338.112 C 242.584 330.17 257.836 319.659 272.588 320.291 C 272.507 322.141 272.422 324.002 272.34 325.876" fill="#f8b517"/>
      <path d="M 295.833 367.429 L 294.23 363.788 L 292.629 367.429 L 295.833 367.429 Z M 296.206 368.278 L 292.257 368.278 L 291.44 370.136 L 290.348 370.136 L 293.71 362.707 L 294.762 362.707 L 298.136 370.136 L 297.022 370.136 L 296.206 368.278 Z" fill="#231f20"/>
      <path d="M 299.708 367.88 C 299.959 368.315 300.306 368.657 300.748 368.903 C 301.192 369.152 301.684 369.276 302.229 369.276 C 302.767 369.276 303.255 369.152 303.692 368.903 C 304.131 368.657 304.476 368.315 304.727 367.88 C 304.978 367.445 305.104 366.958 305.104 366.422 C 305.104 365.883 304.978 365.395 304.727 364.961 C 304.476 364.526 304.131 364.186 303.692 363.938 C 303.255 363.689 302.767 363.567 302.229 363.567 C 301.684 363.567 301.192 363.689 300.748 363.938 C 300.306 364.186 299.959 364.526 299.708 364.961 C 299.458 365.395 299.331 365.883 299.331 366.422 C 299.331 366.958 299.458 367.445 299.708 367.88 Z M 306.526 370.815 C 306.287 371.098 306.006 371.314 305.688 371.461 C 305.371 371.61 305.026 371.684 304.658 371.684 C 304.191 371.684 303.756 371.574 303.349 371.351 C 302.942 371.128 302.478 370.748 301.953 370.21 C 301.251 370.173 300.622 369.987 300.057 369.647 C 299.497 369.308 299.057 368.855 298.743 368.294 C 298.427 367.733 298.271 367.107 298.271 366.422 C 298.271 365.706 298.441 365.058 298.786 364.478 C 299.129 363.898 299.6 363.443 300.203 363.116 C 300.803 362.788 301.48 362.622 302.229 362.622 C 302.972 362.622 303.644 362.788 304.246 363.116 C 304.846 363.443 305.316 363.896 305.656 364.474 C 305.997 365.051 306.165 365.699 306.165 366.422 C 306.165 367.029 306.043 367.587 305.799 368.098 C 305.555 368.607 305.212 369.034 304.771 369.382 C 304.329 369.729 303.821 369.969 303.248 370.104 C 303.494 370.364 303.733 370.555 303.964 370.669 C 304.193 370.787 304.428 370.847 304.67 370.847 C 305.191 370.847 305.647 370.633 306.026 370.21 L 306.526 370.815 Z" fill="#231f20"/>
      <path d="M 308.376 369.371 C 307.824 368.806 307.548 367.991 307.548 366.931 L 307.548 362.705 L 308.611 362.705 L 308.611 366.887 C 308.611 368.479 309.305 369.275 310.699 369.275 C 311.38 369.275 311.9 369.079 312.261 368.685 C 312.622 368.295 312.801 367.694 312.801 366.887 L 312.801 362.705 L 313.829 362.705 L 313.829 366.931 C 313.829 367.998 313.556 368.815 313.001 369.376 C 312.452 369.939 311.679 370.219 310.69 370.219 C 309.698 370.219 308.929 369.937 308.376 369.371" fill="#231f20"/>
      <path d="M 315.832 362.705 L 316.892 362.705 L 316.892 370.135 L 315.832 370.135 L 315.832 362.705 Z" fill="#231f20" style="transform-box: fill-box; transform-origin: 50% 50%;"/>
      <path d="M 323.452 363.63 L 320.906 363.63 L 320.906 362.705 L 327.049 362.705 L 327.049 363.63 L 324.503 363.63 L 324.503 370.135 L 323.452 370.135 L 323.452 363.63 Z" fill="#231f20"/>
      <path d="M 333.501 369.212 L 333.501 370.134 L 328.11 370.134 L 328.11 362.707 L 333.354 362.707 L 333.354 363.629 L 329.173 363.629 L 329.173 365.911 L 332.896 365.911 L 332.896 366.813 L 329.173 366.813 L 329.173 369.212 L 333.501 369.212 Z" fill="#231f20"/>
      <path d="M 341.821 370.135 L 341.809 364.723 L 339.125 369.233 L 338.638 369.233 L 335.953 364.755 L 335.953 370.135 L 334.935 370.135 L 334.935 362.706 L 335.804 362.706 L 338.902 367.927 L 341.959 362.706 L 342.828 362.706 L 342.839 370.135 L 341.821 370.135 Z" fill="#231f20"/>
      <path d="M 349.227 364.108 L 346.851 364.108 L 346.851 362.707 L 353.323 362.707 L 353.323 364.108 L 350.948 364.108 L 350.948 370.134 L 349.227 370.134 L 349.227 364.108 Z" fill="#231f20"/>
      <path d="M 358.474 364.442 C 358.205 364.219 357.812 364.109 357.296 364.109 L 355.895 364.109 L 355.895 366.696 L 357.296 366.696 C 357.812 366.696 358.205 366.583 358.474 366.358 C 358.743 366.13 358.876 365.813 358.876 365.401 C 358.876 364.985 358.743 364.665 358.474 364.442 Z M 358.908 370.135 L 357.475 368.067 L 357.39 368.067 L 355.895 368.067 L 355.895 370.135 L 354.175 370.135 L 354.175 362.705 L 357.39 362.705 C 358.048 362.705 358.621 362.816 359.104 363.037 C 359.589 363.255 359.962 363.565 360.224 363.97 C 360.486 364.373 360.617 364.849 360.617 365.401 C 360.617 365.953 360.484 366.429 360.219 366.829 C 359.955 367.229 359.578 367.535 359.088 367.747 L 360.755 370.135 L 358.908 370.135 Z" fill="#231f20"/>
      <path d="M 366.598 367.238 L 365.42 364.393 L 364.243 367.238 L 366.598 367.238 Z M 367.138 368.545 L 363.69 368.545 L 363.033 370.134 L 361.271 370.134 L 364.583 362.707 L 366.28 362.707 L 369.602 370.134 L 367.796 370.134 L 367.138 368.545 Z" fill="#231f20"/>
      <path d="M 375.117 368.618 C 375.347 368.468 375.462 368.238 375.462 367.927 C 375.462 367.311 375.006 367.005 374.093 367.005 L 372.088 367.005 L 372.088 368.841 L 374.093 368.841 C 374.546 368.841 374.886 368.767 375.117 368.618 Z M 372.088 364.001 L 372.088 365.751 L 373.796 365.751 C 374.219 365.751 374.541 365.678 374.76 365.529 C 374.981 365.381 375.089 365.163 375.089 364.871 C 375.089 364.58 374.981 364.365 374.76 364.22 C 374.541 364.075 374.219 364.001 373.796 364.001 L 372.088 364.001 Z M 376.83 366.945 C 377.072 367.26 377.191 367.649 377.191 368.109 C 377.191 368.76 376.938 369.259 376.432 369.609 C 375.927 369.958 375.188 370.136 374.219 370.136 L 370.379 370.136 L 370.379 362.706 L 374.008 362.706 C 374.915 362.706 375.609 362.881 376.094 363.226 C 376.577 363.573 376.819 364.043 376.819 364.639 C 376.819 364.999 376.734 365.321 376.561 365.604 C 376.386 365.887 376.145 366.11 375.832 366.271 C 376.258 366.407 376.589 366.631 376.83 366.945" fill="#231f20"/>
      <path d="M 382.77 367.238 L 381.592 364.393 L 380.415 367.238 L 382.77 367.238 Z M 383.31 368.545 L 379.862 368.545 L 379.204 370.134 L 377.443 370.134 L 380.755 362.707 L 382.452 362.707 L 385.773 370.134 L 383.968 370.134 L 383.31 368.545 Z" fill="#231f20"/>
      <path d="M 386.55 362.706 L 388.271 362.706 L 388.271 368.735 L 391.994 368.735 L 391.994 370.136 L 386.55 370.136 L 386.55 362.706 Z" fill="#231f20"/>
      <path d="M 399.679 362.706 L 399.679 370.136 L 397.961 370.136 L 397.961 367.09 L 394.587 367.09 L 394.587 370.136 L 392.866 370.136 L 392.866 362.706 L 394.587 362.706 L 394.587 365.634 L 397.961 365.634 L 397.961 362.706 L 399.679 362.706 Z" fill="#231f20"/>
      <path d="M 406.236 368.496 C 406.59 368.293 406.866 368.013 407.068 367.652 C 407.271 367.29 407.372 366.881 407.372 366.421 C 407.372 365.961 407.271 365.551 407.068 365.19 C 406.866 364.829 406.59 364.549 406.236 364.347 C 405.881 364.144 405.486 364.045 405.047 364.045 C 404.607 364.045 404.211 364.144 403.857 364.347 C 403.505 364.549 403.227 364.829 403.025 365.19 C 402.825 365.551 402.724 365.961 402.724 366.421 C 402.724 366.881 402.825 367.29 403.025 367.652 C 403.227 368.013 403.505 368.293 403.857 368.496 C 404.211 368.698 404.607 368.797 405.047 368.797 C 405.486 368.797 405.881 368.698 406.236 368.496 Z M 402.963 369.763 C 402.341 369.431 401.858 368.974 401.506 368.389 C 401.157 367.805 400.982 367.15 400.982 366.421 C 400.982 365.692 401.157 365.036 401.506 364.452 C 401.858 363.87 402.341 363.41 402.963 363.079 C 403.582 362.745 404.276 362.58 405.047 362.58 C 405.817 362.58 406.511 362.745 407.126 363.079 C 407.742 363.41 408.228 363.87 408.582 364.452 C 408.934 365.036 409.11 365.692 409.11 366.421 C 409.11 367.15 408.934 367.805 408.582 368.389 C 408.228 368.974 407.742 369.431 407.126 369.763 C 406.511 370.096 405.817 370.262 405.047 370.262 C 404.276 370.262 403.582 370.096 402.963 369.763" fill="#231f20"/>
      <path d="M 409.902 369.991 C 409.76 369.853 409.691 369.678 409.691 369.467 C 409.691 369.262 409.76 369.09 409.902 368.952 C 410.045 368.814 410.213 368.745 410.413 368.745 C 410.611 368.745 410.777 368.811 410.91 368.948 C 411.046 369.08 411.113 369.255 411.113 369.467 C 411.113 369.678 411.043 369.853 410.905 369.991 C 410.768 370.13 410.604 370.199 410.413 370.199 C 410.213 370.199 410.045 370.13 409.902 369.991" fill="#231f20" style="transform-box: fill-box; transform-origin: 50% 50%;"/>
      <path d="M 295.833 379.712 L 294.23 376.071 L 292.629 379.712 L 295.833 379.712 Z M 296.206 380.561 L 292.257 380.561 L 291.44 382.419 L 290.348 382.419 L 293.71 374.99 L 294.762 374.99 L 298.136 382.419 L 297.022 382.419 L 296.206 380.561 Z" fill="#231f20"/>
      <path d="M 299.708 380.164 C 299.959 380.598 300.306 380.941 300.748 381.187 C 301.192 381.436 301.684 381.559 302.229 381.559 C 302.767 381.559 303.255 381.436 303.692 381.187 C 304.131 380.941 304.476 380.598 304.727 380.164 C 304.978 379.729 305.104 379.241 305.104 378.705 C 305.104 378.167 304.978 377.68 304.727 377.245 C 304.476 376.81 304.131 376.47 303.692 376.221 C 303.255 375.973 302.767 375.851 302.229 375.851 C 301.684 375.851 301.192 375.973 300.748 376.221 C 300.306 376.47 299.959 376.81 299.708 377.245 C 299.458 377.68 299.331 378.167 299.331 378.705 C 299.331 379.241 299.458 379.729 299.708 380.164 Z M 306.526 383.098 C 306.287 383.381 306.006 383.598 305.688 383.744 C 305.371 383.894 305.026 383.968 304.658 383.968 C 304.191 383.968 303.756 383.857 303.349 383.634 C 302.942 383.411 302.478 383.032 301.953 382.493 C 301.251 382.457 300.622 382.27 300.057 381.93 C 299.497 381.591 299.057 381.141 298.743 380.578 C 298.427 380.016 298.271 379.39 298.271 378.705 C 298.271 377.99 298.441 377.341 298.786 376.762 C 299.129 376.182 299.6 375.727 300.203 375.4 C 300.803 375.071 301.48 374.905 302.229 374.905 C 302.972 374.905 303.644 375.071 304.246 375.4 C 304.846 375.727 305.316 376.18 305.656 376.757 C 305.997 377.335 306.165 377.983 306.165 378.705 C 306.165 379.312 306.043 379.871 305.799 380.382 C 305.555 380.89 305.212 381.318 304.771 381.665 C 304.329 382.013 303.821 382.252 303.248 382.387 C 303.494 382.648 303.733 382.839 303.964 382.954 C 304.193 383.071 304.428 383.131 304.67 383.131 C 305.191 383.131 305.647 382.916 306.026 382.493 L 306.526 383.098 Z" fill="#231f20"/>
      <path d="M 308.376 381.655 C 307.824 381.089 307.548 380.275 307.548 379.214 L 307.548 374.99 L 308.611 374.99 L 308.611 379.171 C 308.611 380.762 309.305 381.558 310.699 381.558 C 311.38 381.558 311.9 381.363 312.261 380.97 C 312.622 380.578 312.801 379.978 312.801 379.171 L 312.801 374.99 L 313.829 374.99 L 313.829 379.214 C 313.829 380.282 313.556 381.098 313.001 381.659 C 312.452 382.223 311.679 382.504 310.69 382.504 C 309.698 382.504 308.929 382.221 308.376 381.655" fill="#231f20"/>
      <path d="M 315.832 374.99 L 316.892 374.99 L 316.892 382.419 L 315.832 382.419 L 315.832 374.99 Z" fill="#231f20" style="transform-box: fill-box; transform-origin: 50% 50%;"/>
      <path d="M 323.452 375.914 L 320.906 375.914 L 320.906 374.99 L 327.049 374.99 L 327.049 375.914 L 324.503 375.914 L 324.503 382.418 L 323.452 382.418 L 323.452 375.914 Z" fill="#231f20"/>
      <path d="M 333.501 381.496 L 333.501 382.417 L 328.11 382.417 L 328.11 374.991 L 333.354 374.991 L 333.354 375.913 L 329.173 375.913 L 329.173 378.195 L 332.896 378.195 L 332.896 379.096 L 329.173 379.096 L 329.173 381.496 L 333.501 381.496 Z" fill="#231f20"/>
      <path d="M 341.821 382.419 L 341.809 377.007 L 339.125 381.517 L 338.638 381.517 L 335.953 377.039 L 335.953 382.419 L 334.935 382.419 L 334.935 374.99 L 335.804 374.99 L 338.902 380.21 L 341.959 374.99 L 342.828 374.99 L 342.839 382.419 L 341.821 382.419 Z" fill="#231f20"/>
      <path d="M 349.408 376.37 L 349.408 378.332 L 352.847 378.332 L 352.847 379.712 L 349.408 379.712 L 349.408 382.419 L 347.688 382.419 L 347.688 374.99 L 353.302 374.99 L 353.302 376.37 L 349.408 376.37 Z" fill="#231f20"/>
      <path d="M 355.255 381.665 C 354.663 381.078 354.369 380.239 354.369 379.151 L 354.369 374.99 L 356.087 374.99 L 356.087 379.087 C 356.087 380.416 356.639 381.081 357.743 381.081 C 358.282 381.081 358.691 380.92 358.974 380.6 C 359.257 380.276 359.399 379.772 359.399 379.087 L 359.399 374.99 L 361.097 374.99 L 361.097 379.151 C 361.097 380.239 360.802 381.078 360.211 381.665 C 359.62 382.254 358.794 382.546 357.731 382.546 C 356.671 382.546 355.846 382.254 355.255 381.665" fill="#231f20"/>
      <path d="M 364.296 376.391 L 361.92 376.391 L 361.92 374.991 L 368.392 374.991 L 368.392 376.391 L 366.016 376.391 L 366.016 382.417 L 364.296 382.417 L 364.296 376.391 Z" fill="#231f20"/>
      <path d="M 370.1 381.665 C 369.509 381.078 369.215 380.239 369.215 379.151 L 369.215 374.99 L 370.933 374.99 L 370.933 379.087 C 370.933 380.416 371.485 381.081 372.589 381.081 C 373.127 381.081 373.537 380.92 373.819 380.6 C 374.102 380.276 374.245 379.772 374.245 379.087 L 374.245 374.99 L 375.943 374.99 L 375.943 379.151 C 375.943 380.239 375.648 381.078 375.057 381.665 C 374.466 382.254 373.64 382.546 372.577 382.546 C 371.517 382.546 370.691 382.254 370.1 381.665" fill="#231f20"/>
      <path d="M 381.931 376.726 C 381.661 376.503 381.268 376.392 380.753 376.392 L 379.352 376.392 L 379.352 378.98 L 380.753 378.98 C 381.268 378.98 381.661 378.867 381.931 378.641 C 382.2 378.414 382.333 378.096 382.333 377.685 C 382.333 377.268 382.2 376.949 381.931 376.726 Z M 382.365 382.418 L 380.932 380.351 L 380.847 380.351 L 379.352 380.351 L 379.352 382.418 L 377.632 382.418 L 377.632 374.989 L 380.847 374.989 C 381.505 374.989 382.078 375.1 382.561 375.32 C 383.046 375.538 383.419 375.849 383.681 376.254 C 383.943 376.657 384.074 377.133 384.074 377.685 C 384.074 378.237 383.941 378.713 383.676 379.113 C 383.412 379.513 383.035 379.819 382.545 380.031 L 384.212 382.418 L 382.365 382.418 Z" fill="#231f20"/>
      <path d="M 390.166 380.779 C 390.52 380.576 390.796 380.296 390.998 379.935 C 391.2 379.573 391.301 379.164 391.301 378.704 C 391.301 378.244 391.2 377.835 390.998 377.474 C 390.796 377.112 390.52 376.832 390.166 376.63 C 389.811 376.427 389.416 376.329 388.976 376.329 C 388.537 376.329 388.141 376.427 387.787 376.63 C 387.435 376.832 387.157 377.112 386.955 377.474 C 386.755 377.835 386.653 378.244 386.653 378.704 C 386.653 379.164 386.755 379.573 386.955 379.935 C 387.157 380.296 387.435 380.576 387.787 380.779 C 388.141 380.981 388.537 381.08 388.976 381.08 C 389.416 381.08 389.811 380.981 390.166 380.779 Z M 386.893 382.046 C 386.272 381.715 385.788 381.258 385.439 380.673 C 385.087 380.089 384.912 379.433 384.912 378.704 C 384.912 377.975 385.087 377.32 385.439 376.735 C 385.788 376.153 386.272 375.694 386.893 375.362 C 387.511 375.029 388.206 374.863 388.976 374.863 C 389.747 374.863 390.442 375.029 391.056 375.362 C 391.672 375.694 392.157 376.153 392.511 376.735 C 392.864 377.32 393.04 377.975 393.04 378.704 C 393.04 379.433 392.864 380.089 392.511 380.673 C 392.157 381.258 391.672 381.715 391.056 382.046 C 390.442 382.38 389.747 382.545 388.976 382.545 C 388.206 382.545 387.511 382.38 386.893 382.046" fill="#231f20"/>
      <path d="M 393.832 382.275 C 393.69 382.137 393.621 381.963 393.621 381.751 C 393.621 381.546 393.69 381.374 393.832 381.235 C 393.975 381.097 394.143 381.029 394.344 381.029 C 394.541 381.029 394.707 381.095 394.84 381.231 C 394.976 381.365 395.043 381.539 395.043 381.751 C 395.043 381.963 394.973 382.137 394.835 382.275 C 394.698 382.413 394.534 382.482 394.344 382.482 C 394.143 382.482 393.975 382.413 393.832 382.275" fill="#231f20"/>
      <path d="M 294.451 310.282 C 295.069 309.949 295.778 309.781 296.574 309.781 C 297.791 309.781 298.83 310.214 299.69 311.073 L 301.015 309.781 C 300.486 309.178 299.835 308.72 299.06 308.41 C 298.285 308.097 297.425 307.941 296.477 307.941 C 295.316 307.941 294.267 308.192 293.335 308.693 C 292.406 309.192 291.674 309.884 291.148 310.768 C 290.622 311.651 290.357 312.644 290.357 313.755 C 290.357 314.864 290.622 315.86 291.148 316.74 C 291.674 317.624 292.401 318.317 293.329 318.815 C 294.253 319.317 295.293 319.567 296.445 319.567 C 297.264 319.567 298.059 319.444 298.835 319.197 C 299.61 318.949 300.289 318.592 300.87 318.13 L 300.87 313.624 L 298.883 313.624 L 298.883 317.146 C 298.216 317.532 297.441 317.728 296.558 317.728 C 295.771 317.728 295.069 317.555 294.451 317.21 C 293.832 316.865 293.347 316.391 292.997 315.789 C 292.648 315.186 292.473 314.508 292.473 313.755 C 292.473 312.978 292.648 312.29 292.997 311.688 C 293.347 311.085 293.832 310.616 294.451 310.282" fill="#231f20"/>
      <path d="M 313.013 315.797 C 312.667 316.406 312.196 316.878 311.591 317.218 C 310.988 317.556 310.309 317.726 309.558 317.726 C 308.803 317.726 308.125 317.556 307.522 317.218 C 306.919 316.878 306.446 316.406 306.101 315.797 C 305.758 315.19 305.585 314.506 305.585 313.754 C 305.585 313 305.758 312.32 306.101 311.712 C 306.446 311.102 306.919 310.629 307.522 310.291 C 308.125 309.952 308.803 309.782 309.558 309.782 C 310.309 309.782 310.988 309.952 311.591 310.291 C 312.196 310.629 312.667 311.102 313.013 311.712 C 313.357 312.32 313.529 313 313.529 313.754 C 313.529 314.506 313.357 315.19 313.013 315.797 Z M 312.674 308.692 C 311.747 308.191 310.708 307.942 309.558 307.942 C 308.405 307.942 307.366 308.191 306.441 308.692 C 305.514 309.193 304.787 309.888 304.26 310.774 C 303.734 311.664 303.47 312.655 303.47 313.754 C 303.47 314.852 303.734 315.845 304.26 316.733 C 304.787 317.621 305.514 318.315 306.441 318.817 C 307.366 319.316 308.405 319.567 309.558 319.567 C 310.708 319.567 311.747 319.316 312.674 318.817 C 313.599 318.315 314.326 317.623 314.852 316.742 C 315.381 315.859 315.646 314.863 315.646 313.754 C 315.646 312.646 315.381 311.65 314.852 310.766 C 314.326 309.884 313.599 309.193 312.674 308.692" fill="#231f20"/>
      <path d="M 322.604 316.823 L 318.841 308.103 L 316.564 308.103 L 321.507 319.406 L 323.572 319.406 L 328.497 308.103 L 326.399 308.103 L 322.604 316.823 Z" fill="#231f20"/>
      <path d="M 332.439 314.53 L 337.897 314.53 L 337.897 312.802 L 332.439 312.802 L 332.439 309.863 L 338.591 309.863 L 338.591 308.103 L 330.339 308.103 L 330.339 319.406 L 338.817 319.406 L 338.817 317.646 L 332.439 317.646 L 332.439 314.53 Z" fill="#231f20"/>
      <path d="M 346.358 314.384 L 343.904 314.384 L 343.904 309.878 L 346.358 309.878 C 347.273 309.878 347.968 310.073 348.441 310.46 C 348.915 310.849 349.152 311.403 349.152 312.123 C 349.152 312.845 348.915 313.402 348.441 313.795 C 347.968 314.188 347.273 314.384 346.358 314.384 Z M 350.645 314.319 C 351.059 313.705 351.267 312.974 351.267 312.123 C 351.267 311.295 351.073 310.579 350.687 309.974 C 350.298 309.372 349.741 308.909 349.014 308.587 C 348.288 308.263 347.434 308.102 346.454 308.102 L 341.804 308.102 L 341.804 319.407 L 343.904 319.407 L 343.904 316.111 L 346.454 316.111 C 346.648 316.111 346.795 316.106 346.892 316.095 L 349.201 319.407 L 351.461 319.407 L 348.86 315.692 C 349.635 315.391 350.231 314.933 350.645 314.319" fill="#231f20"/>
      <path d="M 362.214 315.757 L 355.981 308.102 L 354.254 308.102 L 354.254 319.406 L 356.336 319.406 L 356.336 311.752 L 362.571 319.406 L 364.298 319.406 L 364.298 308.102 L 362.214 308.102 L 362.214 315.757 Z" fill="#231f20"/>
      <path d="M 376.715 315.797 C 376.37 316.406 375.896 316.878 375.294 317.218 C 374.691 317.556 374.013 317.726 373.261 317.726 C 372.506 317.726 371.827 317.556 371.225 317.218 C 370.623 316.878 370.148 316.406 369.804 315.797 C 369.461 315.19 369.289 314.506 369.289 313.754 C 369.289 313 369.461 312.32 369.804 311.712 C 370.148 311.102 370.623 310.629 371.225 310.291 C 371.827 309.952 372.506 309.782 373.261 309.782 C 374.013 309.782 374.691 309.952 375.294 310.291 C 375.896 310.629 376.37 311.102 376.715 311.712 C 377.06 312.32 377.233 313 377.233 313.754 C 377.233 314.506 377.06 315.19 376.715 315.797 Z M 376.377 308.692 C 375.451 308.191 374.411 307.942 373.261 307.942 C 372.108 307.942 371.068 308.191 370.144 308.692 C 369.217 309.193 368.49 309.888 367.964 310.774 C 367.437 311.664 367.172 312.655 367.172 313.754 C 367.172 314.852 367.437 315.845 367.964 316.733 C 368.49 317.621 369.217 318.315 370.144 318.817 C 371.068 319.316 372.108 319.567 373.261 319.567 C 374.411 319.567 375.451 319.316 376.377 318.817 C 377.302 318.315 378.028 317.623 378.555 316.742 C 379.085 315.859 379.349 314.863 379.349 313.754 C 379.349 312.646 379.085 311.65 378.555 310.766 C 378.028 309.884 377.302 309.193 376.377 308.692" fill="#231f20"/>
      <path d="M 395.81 315.797 C 395.472 316.383 394.986 316.837 394.357 317.154 C 393.726 317.472 392.997 317.63 392.169 317.63 L 389.423 317.63 L 389.423 309.879 L 392.169 309.879 C 392.997 309.879 393.726 310.038 394.357 310.355 C 394.986 310.673 395.472 311.126 395.81 311.712 C 396.148 312.299 396.318 312.979 396.318 313.754 C 396.318 314.53 396.148 315.21 395.81 315.797 Z M 395.479 308.805 C 394.542 308.335 393.471 308.103 392.266 308.103 L 387.325 308.103 L 387.325 319.406 L 392.266 319.406 C 393.471 319.406 394.542 319.171 395.479 318.704 C 396.415 318.235 397.142 317.572 397.66 316.717 C 398.177 315.861 398.434 314.875 398.434 313.754 C 398.434 312.634 398.177 311.647 397.66 310.792 C 397.142 309.934 396.415 309.274 395.479 308.805" fill="#231f20"/>
      <path d="M 410.044 315.797 C 409.699 316.406 409.225 316.878 408.623 317.218 C 408.02 317.556 407.341 317.726 406.589 317.726 C 405.835 317.726 405.157 317.556 404.554 317.218 C 403.951 316.878 403.477 316.406 403.132 315.797 C 402.79 315.19 402.617 314.506 402.617 313.754 C 402.617 313 402.79 312.32 403.132 311.712 C 403.477 311.102 403.951 310.629 404.554 310.291 C 405.157 309.952 405.835 309.782 406.589 309.782 C 407.341 309.782 408.02 309.952 408.623 310.291 C 409.225 310.629 409.699 311.102 410.044 311.712 C 410.389 312.32 410.562 313 410.562 313.754 C 410.562 314.506 410.389 315.19 410.044 315.797 Z M 411.884 310.766 C 411.358 309.884 410.631 309.193 409.706 308.692 C 408.779 308.191 407.739 307.942 406.589 307.942 C 405.437 307.942 404.398 308.191 403.473 308.692 C 402.546 309.193 401.819 309.888 401.293 310.774 C 400.766 311.664 400.501 312.655 400.501 313.754 C 400.501 314.852 400.766 315.845 401.293 316.733 C 401.819 317.621 402.546 318.315 403.473 318.817 C 404.398 319.316 405.437 319.567 406.589 319.567 C 407.739 319.567 408.779 319.316 409.706 318.817 C 410.631 318.315 411.358 317.623 411.884 316.742 C 412.413 315.859 412.678 314.863 412.678 313.754 C 412.678 312.646 412.413 311.65 411.884 310.766" fill="#231f20"/>
      <path d="M 309.1 339.563 C 310.068 338.734 310.554 337.557 310.554 336.026 C 310.554 334.496 310.068 333.309 309.1 332.465 C 308.132 331.623 306.694 331.2 304.79 331.2 L 299.638 331.2 L 299.638 340.805 L 304.79 340.805 C 306.694 340.805 308.132 340.391 309.1 339.563 Z M 313.084 325.367 C 315.269 326.352 316.955 327.756 318.144 329.583 C 319.328 331.411 319.924 333.56 319.924 336.026 C 319.924 338.493 319.328 340.633 318.144 342.445 C 316.955 344.257 315.269 345.654 313.084 346.638 C 310.896 347.623 308.32 348.115 305.351 348.115 L 299.638 348.115 L 299.638 356.687 L 290.359 356.687 L 290.359 323.89 L 305.351 323.89 C 308.32 323.89 310.896 324.382 313.084 325.367" fill="#007236"/>
      <path d="M 321.61 323.892 L 330.885 323.892 L 330.885 356.689 L 321.61 356.689 L 321.61 323.892 Z" fill="#007236"/>
      <path d="M 355.81 343.475 L 351.594 332.98 L 347.378 343.475 L 355.81 343.475 Z M 358.528 350.315 L 344.659 350.315 L 342.083 356.686 L 332.618 356.686 L 347.097 323.892 L 356.233 323.892 L 370.756 356.686 L 361.105 356.686 L 358.528 350.315 Z" fill="#007236"/>
      <path d="M 372.7 353.361 C 369.997 350.706 368.647 346.943 368.647 342.069 L 368.647 323.892 L 377.923 323.892 L 377.923 341.789 C 377.923 347.035 380 349.66 384.154 349.66 C 388.278 349.66 390.338 347.035 390.338 341.789 L 390.338 323.892 L 399.475 323.892 L 399.475 342.069 C 399.475 346.943 398.125 350.706 395.422 353.361 C 392.721 356.017 388.934 357.344 384.062 357.344 C 379.188 357.344 375.4 356.017 372.7 353.361" fill="#007236"/>
      <path d="M 411.282 323.891 L 402.006 323.891 L 402.006 329.853 L 411.282 323.891 Z" fill="#007236"/>
      <path d="M 402.005 332.547 L 402.005 356.686 L 411.281 356.686 L 411.281 326.585 L 402.005 332.547 Z" fill="#007236"/>
      <path d="M 297.135 315.283 L 300.87 315.283 L 300.87 313.625 L 297.135 313.625 L 297.135 315.283 Z" fill="#231f20" style="transform-box: fill-box; transform-origin: 50% 50%;"/>
    </g>
  </g>
</svg>